<?xml version="1.0" standalone="no"?>
<!DOCTYPE svg PUBLIC "-//W3C//DTD SVG 20010904//EN"
 "http://www.w3.org/TR/2001/REC-SVG-20010904/DTD/svg10.dtd">
<svg version="1.0" xmlns="http://www.w3.org/2000/svg"
 width="700.000000pt" height="700.000000pt" viewBox="0 0 700.000000 700.000000"
 preserveAspectRatio="xMidYMid meet">
<metadata>
Created by potrace 1.14, written by Peter Selinger 2001-2017
</metadata>
<g transform="translate(0.000000,700.000000) scale(0.100000,-0.100000)"
fill="#000000" stroke="none">
<path d="M4038 6104 c-16 -8 -37 -31 -47 -52 -11 -21 -87 -274 -171 -562 -83
-289 -257 -889 -385 -1335 -129 -445 -354 -1224 -500 -1730 -354 -1225 -388
-1350 -381 -1390 6 -32 33 -63 72 -83 33 -17 246 -72 279 -72 40 0 93 34 106
68 20 51 90 286 249 837 170 593 752 2606 1011 3502 88 304 165 579 171 611
20 108 -16 142 -200 191 -132 35 -164 37 -204 15z"/>
<path d="M1865 5391 c-40 -24 -856 -830 -1413 -1394 l-442 -448 0 -52 0 -52
915 -913 c585 -584 927 -918 949 -927 57 -24 89 -7 209 112 120 119 137 144
137 199 0 45 26 17 -904 951 l-630 632 710 713 c390 392 731 738 756 769 67
78 79 104 66 141 -14 38 -189 222 -247 260 -53 33 -66 34 -106 9z"/>
<path d="M5053 5395 c-37 -16 -201 -170 -244 -229 -41 -56 -38 -92 13 -158 23
-29 368 -380 767 -781 l725 -727 -715 -718 c-394 -394 -739 -745 -767 -780
-84 -102 -76 -127 85 -283 124 -120 156 -138 205 -118 50 21 1854 1822 1868
1865 10 29 9 40 -8 72 -33 65 -1787 1824 -1852 1858 -31 17 -37 16 -77 -1z"/>
</g>
</svg>
